<svg width="36" height="10" viewBox="0 0 36 10" fill="none" xmlns="http://www.w3.org/2000/svg">
<path d="M18.0002 8.55562C20.0866 8.55562 21.778 6.86424 21.778 4.77781C21.778 2.69138 20.0866 1 18.0002 1C15.9138 1 14.2224 2.69138 14.2224 4.77781C14.2224 6.86424 15.9138 8.55562 18.0002 8.55562Z" stroke="#0000FF" stroke-width="2" stroke-miterlimit="10"/>
<path d="M31.2221 8.55562C33.3086 8.55562 35 6.86424 35 4.77781C35 2.69138 33.3086 1 31.2221 1C29.1357 1 27.4443 2.69138 27.4443 4.77781C27.4443 6.86424 29.1357 8.55562 31.2221 8.55562Z" stroke="#0000FF" stroke-width="2" stroke-miterlimit="10"/>
<path d="M4.77781 8.55562C6.86424 8.55562 8.55562 6.86424 8.55562 4.77781C8.55562 2.69138 6.86424 1 4.77781 1C2.69138 1 1 2.69138 1 4.77781C1 6.86424 2.69138 8.55562 4.77781 8.55562Z" stroke="#0000FF" stroke-width="2" stroke-miterlimit="10"/>
</svg>
