<svg width="34" height="34" viewBox="0 0 34 34" fill="none" xmlns="http://www.w3.org/2000/svg">
<g clip-path="url(#clip0_109_314)">
<path d="M33.7159 5.34771C33.9053 4.879 34 4.38236 34 3.88571C34 3.38907 33.9053 2.89243 33.7159 2.42371C33.5264 1.955 33.2411 1.51664 32.8622 1.13779C32.4846 0.760143 32.045 0.473571 31.5763 0.284143C31.1076 0.0947143 30.6109 0 30.1143 0C29.6176 0 29.121 0.0947143 28.6523 0.284143C28.1836 0.473571 27.7452 0.758929 27.3664 1.13779L1.13779 27.3664C0.901009 27.6031 0.901009 27.9881 1.13779 28.2249C1.37458 28.4616 1.75951 28.4616 1.99629 28.2249L28.2249 1.99629C28.4871 1.734 28.7871 1.53971 29.1076 1.40979C29.4282 1.27986 29.7706 1.21429 30.1131 1.21429C30.4555 1.21429 30.7979 1.27986 31.1185 1.40979C31.4403 1.53971 31.7402 1.73521 32.0025 1.99629C32.2648 2.25857 32.4591 2.5585 32.589 2.87907C32.7189 3.19964 32.7845 3.54207 32.7845 3.8845C32.7845 4.22693 32.7189 4.56936 32.589 4.88993C32.4591 5.2105 32.2636 5.51164 32.0025 5.77271L5.77394 32.0013C5.53715 32.2381 5.53715 32.623 5.77394 32.8598C6.01072 33.0966 6.39565 33.0966 6.63244 32.8598L32.861 6.63121C33.2399 6.25479 33.5252 5.81521 33.7159 5.34771Z" fill="#0000FF" fill-opacity="0.3"/>
<path d="M7.48729 28.6523C7.29786 28.1836 7.0125 27.7452 6.63364 27.3664C6.256 26.9887 5.81643 26.7021 5.34771 26.5127C4.879 26.3233 4.38236 26.2286 3.88571 26.2286C3.38907 26.2286 2.89243 26.3233 2.42371 26.5127C1.955 26.7021 1.51664 26.9875 1.13779 27.3664C0.760143 27.744 0.473571 28.1836 0.284143 28.6523C0.0947143 29.121 0 29.6176 0 30.1143C0 30.6109 0.0947143 31.1076 0.284143 31.5763C0.473571 32.045 0.758929 32.4834 1.13779 32.8622C1.51543 33.2399 1.955 33.5264 2.42371 33.7159C2.89243 33.9053 3.38907 34 3.88571 34C4.38236 34 4.879 33.9053 5.34771 33.7159C5.81643 33.5264 6.25479 33.2411 6.63364 32.8622L6.20379 32.4324L6.63364 32.8622C7.01129 32.4846 7.29786 32.045 7.48729 31.5763C7.67671 31.1076 7.77143 30.6109 7.77143 30.1143C7.77143 29.6176 7.67671 29.121 7.48729 28.6523ZM6.36164 31.1197C6.23171 31.4415 6.03621 31.7414 5.77514 32.0037C5.51286 32.266 5.21293 32.4603 4.89114 32.5902C4.57057 32.7201 4.22814 32.7857 3.88571 32.7857C3.54329 32.7857 3.20086 32.7201 2.88029 32.5902C2.5585 32.4603 2.25857 32.2648 1.99629 32.0037C1.734 31.7414 1.53971 31.4415 1.40979 31.1197C1.27986 30.7991 1.21429 30.4567 1.21429 30.1143C1.21429 29.7719 1.27986 29.4294 1.40979 29.1089C1.53971 28.7871 1.73521 28.4871 1.99629 28.2249C2.25857 27.9626 2.5585 27.7683 2.88029 27.6384C3.20086 27.5084 3.54329 27.4429 3.88571 27.4429C4.22814 27.4429 4.57057 27.5084 4.89114 27.6384C5.21293 27.7683 5.51286 27.9638 5.77514 28.2249C6.03743 28.4871 6.23171 28.7871 6.36164 29.1089C6.49157 29.4294 6.55714 29.7719 6.55714 30.1143C6.55714 30.4567 6.49157 30.7991 6.36164 31.1197Z" fill="#0000FF"/>
</g>
<defs>
<clipPath id="clip0_109_314">
<rect width="34" height="34" fill="white"/>
</clipPath>
</defs>
</svg>
