<svg width="40" height="34" viewBox="0 0 40 34" fill="none" xmlns="http://www.w3.org/2000/svg">
<g clip-path="url(#clip0_118_318)">
<path d="M16.1429 22.5738C15.7486 22.5738 15.4286 22.8859 15.4286 23.2705V32.6066H1.42857V23.2705C1.42857 22.8859 1.10857 22.5738 0.714286 22.5738C0.32 22.5738 0 22.8859 0 23.2705V33.3033C0 33.4872 0.0757143 33.6656 0.208571 33.7966C0.341429 33.9276 0.525714 34 0.714286 34H16.1429C16.3314 34 16.5143 33.9262 16.6486 33.7966C16.7829 33.667 16.8571 33.4858 16.8571 33.3033V23.2705C16.8571 22.8859 16.5371 22.5738 16.1429 22.5738Z" fill="#0000FF"/>
<path d="M39.9458 10.9957C39.9558 10.9734 39.9615 10.9483 39.9687 10.9261C39.9744 10.9065 39.9829 10.887 39.9872 10.8661C39.9958 10.8215 40.0015 10.777 40.0015 10.7324C40.0015 10.731 40.0015 10.731 40.0015 10.731V0.69679V0.695396C40.0015 0.650806 39.9972 0.604823 39.9872 0.560232C39.9829 0.539331 39.9758 0.521216 39.9687 0.500314C39.9615 0.476626 39.9558 0.452937 39.9458 0.429249C39.9358 0.406954 39.9229 0.386052 39.9101 0.363757C39.9001 0.345642 39.8915 0.326134 39.8801 0.309413C39.8544 0.27179 39.8244 0.23556 39.7915 0.203511C39.7915 0.203511 39.7915 0.203511 39.7901 0.202118C39.7901 0.202118 39.7887 0.202118 39.7887 0.200724C39.7558 0.168675 39.7201 0.139413 39.6815 0.114331C39.6629 0.103183 39.6444 0.0948226 39.6244 0.0850685C39.6029 0.073921 39.5815 0.0599866 39.5587 0.0516259C39.5344 0.0418718 39.5101 0.036298 39.4844 0.0293308C39.4644 0.023757 39.4458 0.0167898 39.4244 0.0126095C39.3315 -0.00550525 39.2372 -0.00550525 39.1444 0.0126095C39.1244 0.0167898 39.1044 0.023757 39.0858 0.0293308C39.0615 0.036298 39.0358 0.0418718 39.0115 0.0516259C38.9887 0.06138 38.9672 0.073921 38.9458 0.0850685C38.9272 0.0948226 38.9072 0.103183 38.8887 0.114331C38.8501 0.139413 38.8144 0.167282 38.7815 0.199331L38.7801 0.200724L28.7044 10.0329H24.5715V0.69679V0.695396C24.5715 0.650806 24.5672 0.604823 24.5572 0.560232C24.5529 0.539331 24.5458 0.521216 24.5386 0.500314C24.5315 0.476626 24.5258 0.452937 24.5158 0.429249C24.5058 0.406954 24.4929 0.386052 24.4801 0.363757C24.4701 0.345642 24.4615 0.326134 24.4501 0.309413C24.4244 0.27179 24.3944 0.23556 24.3615 0.203511C24.3615 0.203511 24.3615 0.203511 24.3601 0.202118C24.3601 0.202118 24.3586 0.202118 24.3586 0.200724C24.3258 0.168675 24.2901 0.139413 24.2515 0.114331C24.2329 0.103183 24.2144 0.0948226 24.1944 0.0850685C24.1729 0.073921 24.1515 0.0599866 24.1286 0.0516259C24.1044 0.0418718 24.0801 0.036298 24.0544 0.0293308C24.0344 0.023757 24.0158 0.0167898 23.9944 0.0126095C23.9015 -0.00550525 23.8072 -0.00550525 23.7144 0.0126095C23.6944 0.0167898 23.6744 0.023757 23.6558 0.0293308C23.6315 0.036298 23.6058 0.0418718 23.5815 0.0516259C23.5586 0.06138 23.5372 0.073921 23.5158 0.0850685C23.4972 0.0948226 23.4772 0.103183 23.4587 0.114331C23.4201 0.139413 23.3844 0.167282 23.3515 0.199331L23.3501 0.200724L0.20722 22.7745C-0.0713518 23.0462 -0.0713518 23.4879 0.20722 23.7597C0.485791 24.0314 0.938648 24.0314 1.21722 23.7597L23.1429 2.37867V10.4411L0.208648 32.8101C-0.0699233 33.0818 -0.0699233 33.5235 0.208648 33.7952C0.48722 34.067 0.940077 34.067 1.21865 33.7952L24.1529 11.4263H27.2758L15.6386 22.7773C15.3601 23.049 15.3601 23.4907 15.6386 23.7624C15.9172 24.0342 16.3701 24.0342 16.6486 23.7624L29.5058 11.2215L38.5715 2.37867V10.4411L15.6372 32.8101C15.3586 33.0818 15.3586 33.5235 15.6372 33.7952C15.9158 34.067 16.3686 34.067 16.6472 33.7952L39.7901 11.2215C39.8229 11.1894 39.8529 11.1532 39.8787 11.1156C39.8901 11.0988 39.8987 11.0793 39.9086 11.0612C39.9215 11.0403 39.9358 11.0194 39.9458 10.9957Z" fill="#0000FF" fill-opacity="0.3"/>
</g>
<defs>
<clipPath id="clip0_118_318">
<rect width="40" height="34" fill="white"/>
</clipPath>
</defs>
</svg>
